<svg width="76" height="46" viewBox="0 0 76 46" fill="none" xmlns="http://www.w3.org/2000/svg">
<g clip-path="url(#clip0_47_32)">
<path d="M41.165 12.4959L41.079 0.543078L19.1069 0.701181C17.6457 0.711695 16.477 1.66056 16.4854 2.82947L16.7788 43.6097C16.7872 44.7786 17.9695 45.7105 19.4307 45.7L56.3438 45.4344C57.8049 45.4239 58.9737 44.475 58.9652 43.3061L58.7578 14.4787L43.8168 14.5862C42.3666 14.5967 41.1733 13.656 41.165 12.4959ZM49.6975 31.0115L39.1652 39.4987C38.4388 40.0849 37.2589 40.0934 36.5242 39.5177L25.8709 31.183C24.7495 30.306 25.5207 28.7808 27.0896 28.7695L34.2503 28.7179L34.1997 21.6869C34.1941 20.9099 34.9761 20.275 35.9473 20.268L39.4628 20.2427C40.434 20.2357 41.2251 20.8593 41.2307 21.6363L41.2813 28.6674L48.442 28.6158C50.0108 28.6045 50.804 30.1185 49.6975 31.0115ZM57.954 9.65041L47.1367 1.11474C46.6395 0.722798 45.9677 0.5079 45.2646 0.512959L44.5945 0.517781L44.6754 11.7675L58.7376 11.6663L58.7337 11.1302C58.7297 10.5765 58.4512 10.0423 57.954 9.65041Z" fill="#9CD5EE"/>
</g>
<defs>
<clipPath id="clip0_47_32">
<rect width="45" height="75" fill="white" transform="translate(0.388184 45.837) rotate(-90.4123)"/>
</clipPath>
</defs>
</svg>
