<svg width="66" height="96" viewBox="0 0 66 96" fill="none" xmlns="http://www.w3.org/2000/svg">
<path d="M8.232 62.8V74H7.192V62.8H8.232ZM12.552 73.504V74H8.184V73.504H12.552ZM13.528 71.408L12.6 74H9.944L10.52 73.504C11.0853 73.504 11.544 73.4187 11.896 73.248C12.2587 73.0667 12.552 72.816 12.776 72.496C13 72.176 13.1973 71.8133 13.368 71.408H13.528ZM7.24 72.832V74H5.96V73.84C5.96 73.84 5.992 73.84 6.056 73.84C6.13067 73.84 6.168 73.84 6.168 73.84C6.44533 73.84 6.68 73.744 6.872 73.552C7.07467 73.3493 7.18133 73.1093 7.192 72.832H7.24ZM7.24 63.968H7.192C7.18133 63.6907 7.07467 63.456 6.872 63.264C6.68 63.0613 6.44533 62.96 6.168 62.96C6.168 62.96 6.13067 62.96 6.056 62.96C5.992 62.96 5.96 62.96 5.96 62.96V62.8H7.24V63.968ZM8.184 63.968V62.8H9.464V62.96C9.45333 62.96 9.416 62.96 9.352 62.96C9.288 62.96 9.256 62.96 9.256 62.96C8.97867 62.96 8.73867 63.0613 8.536 63.264C8.344 63.456 8.24267 63.6907 8.232 63.968H8.184Z" fill="white"/>
<path d="M43.676 56.296L43.964 58.708L34.928 78.832C34.928 78.832 34.832 79.036 34.64 79.444C34.472 79.852 34.292 80.344 34.1 80.92C33.908 81.472 33.776 82 33.704 82.504H33.344L32.84 80.236L43.676 56.296ZM21.536 79.372V82H17.54V81.64C17.564 81.64 17.66 81.64 17.828 81.64C18.02 81.64 18.116 81.64 18.116 81.64C18.764 81.64 19.34 81.448 19.844 81.064C20.348 80.656 20.648 80.092 20.744 79.372H21.536ZM22.58 79.948C22.58 79.972 22.58 79.996 22.58 80.02C22.58 80.044 22.58 80.08 22.58 80.128C22.58 80.512 22.712 80.872 22.976 81.208C23.264 81.52 23.6 81.676 23.984 81.676H24.524V82H22.328V79.948H22.58ZM23.444 56.296H23.804L24.524 58.42L22.4 82H20.456L23.444 56.296ZM23.804 56.296L34.172 78.724L33.344 82.504L23.12 60.328L23.804 56.296ZM44 56.296L47.096 82H44.288L42.308 60.184L43.676 56.296H44ZM46.016 79.372H46.772C46.892 80.092 47.204 80.656 47.708 81.064C48.212 81.448 48.776 81.64 49.4 81.64C49.4 81.64 49.496 81.64 49.688 81.64C49.88 81.64 49.976 81.64 49.976 81.64V82H46.016V79.372ZM44.108 79.948H44.36V82H42.164V81.676H42.704C43.112 81.676 43.448 81.52 43.712 81.208C43.976 80.872 44.108 80.512 44.108 80.128C44.108 80.08 44.108 80.044 44.108 80.02C44.108 79.996 44.108 79.972 44.108 79.948Z" fill="#9CD5EE"/>
<path d="M54.024 62.8H56.28C56.76 62.8 57.192 62.8693 57.576 63.008C57.9707 63.1467 58.3013 63.3493 58.568 63.616C58.8347 63.872 59.0373 64.1867 59.176 64.56C59.3253 64.9227 59.4 65.3387 59.4 65.808C59.4 66.32 59.2773 66.8107 59.032 67.28C58.7973 67.7493 58.472 68.1333 58.056 68.432C57.6507 68.72 57.192 68.864 56.68 68.864C56.8613 68.9387 57.0587 69.0933 57.272 69.328C57.4853 69.552 57.672 69.7707 57.832 69.984C57.832 69.984 57.9013 70.0907 58.04 70.304C58.1893 70.5067 58.3707 70.7573 58.584 71.056C58.808 71.3547 59.032 71.648 59.256 71.936C59.48 72.224 59.672 72.4533 59.832 72.624C60.0453 72.8587 60.2587 73.0667 60.472 73.248C60.6853 73.4293 60.9147 73.5733 61.16 73.68C61.416 73.7867 61.6987 73.84 62.008 73.84V74H61.128C60.6373 74 60.2107 73.9253 59.848 73.776C59.496 73.6267 59.1973 73.4453 58.952 73.232C58.7067 73.008 58.4987 72.7947 58.328 72.592C58.296 72.5493 58.2053 72.4267 58.056 72.224C57.9173 72.0213 57.7467 71.7813 57.544 71.504C57.352 71.216 57.16 70.9333 56.968 70.656C56.776 70.3787 56.6107 70.144 56.472 69.952C56.3333 69.7493 56.2533 69.632 56.232 69.6C56.0293 69.3333 55.8053 69.088 55.56 68.864C55.3147 68.64 55.048 68.528 54.76 68.528V68.368C54.76 68.368 54.84 68.3733 55 68.384C55.1707 68.384 55.3733 68.3787 55.608 68.368C55.8853 68.3573 56.1893 68.3147 56.52 68.24C56.8507 68.1653 57.16 68.0107 57.448 67.776C57.736 67.5413 57.9547 67.184 58.104 66.704C58.136 66.5867 58.1627 66.4427 58.184 66.272C58.2053 66.0907 58.2107 65.9147 58.2 65.744C58.1893 65.0187 58.0027 64.4427 57.64 64.016C57.288 63.5787 56.8133 63.344 56.216 63.312C55.9173 63.2907 55.608 63.2853 55.288 63.296C54.9787 63.296 54.7173 63.296 54.504 63.296C54.2907 63.296 54.184 63.296 54.184 63.296C54.184 63.2853 54.168 63.2427 54.136 63.168C54.1147 63.0827 54.088 63.0027 54.056 62.928C54.0347 62.8427 54.024 62.8 54.024 62.8ZM54.232 62.8V74H53.192V62.8H54.232ZM53.24 72.832V74H51.96V73.84C51.96 73.84 51.992 73.84 52.056 73.84C52.1307 73.84 52.168 73.84 52.168 73.84C52.4453 73.84 52.68 73.744 52.872 73.552C53.0747 73.3493 53.1813 73.1093 53.192 72.832H53.24ZM53.24 63.968H53.192C53.1813 63.6907 53.0747 63.456 52.872 63.264C52.68 63.0613 52.4453 62.96 52.168 62.96C52.168 62.96 52.1307 62.96 52.056 62.96C51.992 62.96 51.96 62.96 51.96 62.96V62.8H53.24V63.968ZM54.184 72.832H54.232C54.232 73.1093 54.3333 73.3493 54.536 73.552C54.7387 73.744 54.9787 73.84 55.256 73.84C55.256 73.84 55.288 73.84 55.352 73.84C55.416 73.84 55.448 73.84 55.448 73.84V74H54.184V72.832Z" fill="white"/>
<path d="M54.696 53.1799L54.722 58.8458L49.897 55.7409L36.9851 31.7465C38.7464 31.1771 40.3458 30.2611 41.73 29.0521L54.696 53.1799ZM41.1752 18.8184C41.185 20.9449 40.3496 22.9881 38.8529 24.4986C37.3562 26.0091 35.3207 26.8632 33.1943 26.8729L32.0184 26.8783L16.7571 55.8929L11.9608 59.0419L11.9348 53.3761L27.2756 24.2274C24.3207 20.9537 24.5647 15.8745 27.8651 12.8928C29.3024 11.6033 31.1698 10.8464 33.1207 10.8375L33.0962 5.49231C33.805 5.48906 34.4861 5.76751 34.9896 6.26642C35.4931 6.76533 35.7778 7.44381 35.7811 8.15263L35.7955 11.3063C39.0078 12.414 41.1597 15.4242 41.1752 18.8184ZM35.8301 18.8429C35.8268 18.1341 35.5421 17.4556 35.0386 16.9567C34.5351 16.4578 33.8541 16.1794 33.1453 16.1826C32.4364 16.1859 31.758 16.4706 31.2591 16.9741C30.7601 17.4776 30.4817 18.1586 30.4849 18.8675C30.4882 19.5763 30.7729 20.2548 31.2764 20.7537C31.7799 21.2526 32.461 21.531 33.1698 21.5278C33.8786 21.5245 34.5571 21.2398 35.056 20.7363C35.5549 20.2328 35.8333 19.5517 35.8301 18.8429Z" fill="#ECFAFF"/>
</svg>
